<svg width="240" height="240" viewBox="0 0 240 240" fill="none" xmlns="http://www.w3.org/2000/svg">
<path d="M121.554 205.678L53.9087 166.649L6.59009 193.989L74.1954 233.02L121.554 205.678Z" fill="#FFE5E3"/>
<path d="M66.3337 217.478C66.3337 219.601 69.6589 221.324 73.7608 221.324C77.8623 221.324 81.1874 219.601 81.1874 217.478C81.1874 215.354 77.8623 213.632 73.7608 213.632C69.6589 213.632 66.3337 215.354 66.3337 217.478Z" fill="#F27281"/>
<path d="M53.7458 173.369L54.6451 174.862L21.1696 194.457L20.2703 192.964L53.7458 173.369Z" fill="#4341AA"/>
<path d="M60.7081 177.487L61.5943 178.988L27.347 198.583L26.4608 197.083L60.7081 177.487Z" fill="#4341AA"/>
<path d="M66.9658 181.605L67.8381 183.113L34.0512 201.937L33.179 200.429L66.9658 181.605Z" fill="#4341AA"/>
<path d="M74.1064 185.216L74.9911 186.717L41.5183 205.798L40.6335 204.296L74.1064 185.216Z" fill="#4341AA"/>
<path d="M80.5436 189.084L81.4389 190.58L47.5842 210.261L46.6888 208.765L80.5436 189.084Z" fill="#4341AA"/>
<path d="M86.9831 193.209L87.8822 194.701L54.4059 214.296L53.5068 212.803L86.9831 193.209Z" fill="#4341AA"/>
<path d="M171.194 158.291L175.259 155.331L174.993 147.658L111.102 123.587L64.3647 150.571L124.456 185.262L171.194 158.291Z" fill="#8194EF"/>
<path d="M124.541 188.927L64.4497 154.237V150.382L124.541 185.073V188.927Z" fill="#C0CBFF"/>
<path d="M64.4497 134.865L124.541 169.554L171.279 142.583L111.188 107.88L64.4497 134.865Z" fill="#C0CBFF"/>
<path d="M172.335 142.97L171.28 142.584L171.279 146.426C174.714 147.712 175.919 154.131 172.619 157.072L171.279 158.102V161.943C171.279 161.943 172.194 161.48 174.117 159.925C178.972 156.001 177.714 144.94 172.335 142.97Z" fill="#97A4F6"/>
<path d="M170.962 144.693L162.569 150.339L124.052 172.301L69.7434 140.949V151.49L124.052 182.842L170.962 155.862V144.693Z" fill="white"/>
<path d="M124.584 182.536L170.962 155.862V144.693L162.569 150.339L124.761 171.897L124.584 182.536Z" fill="#EBEFFF"/>
<path d="M171.279 161.943L124.542 188.927V185.073L171.279 158.102V161.943Z" fill="#97A4F6"/>
<path d="M171.279 146.426L124.542 173.409V169.555L171.279 142.584V146.426Z" fill="#97A4F6"/>
<path d="M124.541 173.409L64.4497 138.719V134.864L124.541 169.555V173.409Z" fill="#EBEFFF"/>
<path d="M134.178 170.912V182.972L137.324 177.765L139.908 179.49L139.59 167.888L134.178 170.912Z" fill="#F27281"/>
<path d="M224.661 160.786C236.22 165.918 236.281 174.237 224.799 179.368C213.318 184.5 194.641 184.501 183.082 179.368C171.525 174.237 171.466 165.917 182.947 160.786C194.429 155.655 213.105 155.655 224.661 160.786Z" fill="#264984"/>
<path d="M72.8274 137.854L69.203 135.216L69.4396 128.374L126.404 106.913L168.075 130.972L114.498 161.901L72.8274 137.854Z" fill="#D19846"/>
<path d="M114.422 165.169L167.999 134.239V130.803L114.422 161.732V165.169Z" fill="#DBA75D"/>
<path d="M168 116.968L114.423 147.896L72.7512 123.849L126.328 92.9081L168 116.968Z" fill="#FFC869"/>
<path d="M71.8104 124.194L72.7513 123.85V127.275C69.6894 128.422 68.6146 134.145 71.558 136.768L72.7513 137.686V141.111C72.7513 141.111 71.9367 140.698 70.2207 139.311C65.8925 135.813 67.0141 125.95 71.8104 124.194Z" fill="#F7CC8D"/>
<path d="M73.0343 125.73L80.5174 130.765L114.859 150.346L163.28 122.393V131.791L114.859 159.744L73.0343 135.688V125.73Z" fill="white"/>
<path d="M114.385 159.471L73.0344 135.689V125.73L80.5175 130.764L114.227 149.985L114.385 159.471Z" fill="#EBEFFF"/>
<path d="M72.7517 141.11L114.423 165.169V161.732L72.7517 137.685V141.11Z" fill="#F7CC8D"/>
<path d="M72.7517 127.275L114.423 151.334V147.897L72.7517 123.85V127.275Z" fill="#F7CC8D"/>
<path d="M114.422 151.334L167.999 120.404V116.967L114.422 147.897V151.334Z" fill="#DBA75D"/>
<path d="M210.425 189.779C211.579 190.445 212.208 191.306 212.225 192.224C212.242 193.15 211.635 194.024 210.516 194.684L199.59 201.126C199.263 201.319 198.725 201.32 198.39 201.13C198.056 200.937 198.051 200.628 198.378 200.436L209.303 193.994C210.104 193.521 210.54 192.894 210.527 192.231C210.516 191.574 210.064 190.956 209.258 190.491C208.419 190.014 207.338 189.76 206.191 189.764C205.046 189.769 203.974 190.033 203.171 190.505L189.293 198.69C188.203 199.334 188.217 200.371 189.321 201.009C190.422 201.633 192.29 201.625 193.352 201L202.672 195.503C202.926 195.354 203.069 195.149 203.065 194.939C203.06 194.728 202.915 194.531 202.655 194.38C202.11 194.07 201.236 194.072 200.707 194.386L194.342 198.14C194.014 198.333 193.478 198.335 193.143 198.145C192.808 197.951 192.803 197.642 193.129 197.45L199.495 193.695C200.678 192.998 202.626 192.989 203.837 193.677C204.43 194.019 204.752 194.461 204.76 194.933C204.769 195.401 204.45 195.861 203.883 196.194L194.564 201.69C193.717 202.189 192.582 202.468 191.371 202.473C190.157 202.478 189.015 202.21 188.148 201.717C186.361 200.685 186.338 199.027 188.08 198L201.958 189.815C203.077 189.155 204.574 188.788 206.174 188.782C207.773 188.775 209.284 189.129 210.425 189.779Z" fill="white"/>
<path d="M197.163 70.2322L170.077 54.9964C169.725 54.7882 169.396 54.7575 169.112 54.8719C169.079 54.8809 169.047 54.8917 169.015 54.9045C168.982 54.9135 168.95 54.924 168.917 54.9367C168.884 54.9465 168.852 54.9562 168.82 54.969C168.787 54.9787 168.755 54.9889 168.723 55.002C168.69 55.011 168.658 55.0211 168.626 55.0342C168.593 55.0432 168.56 55.0537 168.528 55.0665C168.495 55.0755 168.463 55.086 168.431 55.0987C168.398 55.1085 168.366 55.1182 168.334 55.131C168.301 55.1407 168.269 55.1509 168.236 55.164C168.203 55.173 168.171 55.1831 168.139 55.1962C168.106 55.2052 168.074 55.2161 168.042 55.2289C168.009 55.2379 167.976 55.2484 167.944 55.2611C167.911 55.2701 167.879 55.2806 167.847 55.2934C167.814 55.3024 167.782 55.3132 167.75 55.3264C167.717 55.3354 167.685 55.3455 167.653 55.3586C167.62 55.3676 167.587 55.3785 167.555 55.3909C167.522 55.3999 167.49 55.4104 167.458 55.4231C167.425 55.4321 167.393 55.4426 167.361 55.4554C167.328 55.4651 167.295 55.4752 167.263 55.4884C167.23 55.4974 167.198 55.5075 167.166 55.5206C167.133 55.5296 167.101 55.5405 167.069 55.5532C167.036 55.5622 167.004 55.5727 166.972 55.5855C166.938 55.5945 166.906 55.605 166.874 55.6177C166.841 55.6275 166.809 55.6376 166.777 55.6507C166.744 55.6597 166.712 55.6699 166.68 55.683C166.647 55.692 166.614 55.7025 166.582 55.7152C166.549 55.7242 166.517 55.7347 166.485 55.7475C166.452 55.7565 166.419 55.767 166.388 55.7797C166.355 55.7887 166.322 55.7996 166.29 55.8127C166.257 55.8217 166.225 55.8319 166.193 55.845C165.561 56.0186 165.127 56.8845 165.127 58.1857V82.8176C165.127 84.6562 165.992 86.6602 167.061 87.2929L170.912 89.5755V97.1107L171.009 97.0234V97.0777L171.107 96.9907V97.0455L171.203 96.9581V97.0132L171.301 96.9259V96.981L171.398 96.8936V96.9487L171.495 96.8614V96.9165L171.593 96.8284V96.8835L171.69 96.7961V96.8512L171.788 96.7639V96.8186L171.885 96.7316V96.7864L171.982 96.699V96.7541L172.079 96.6664V96.7211L172.176 96.6337V96.6889L172.274 96.6015V96.6566L172.371 96.5692V96.6244L172.469 96.537V96.5914L172.566 96.504V96.5591L172.663 96.4717V96.5269L172.761 96.4395V96.4942L172.857 96.4069V96.462L172.955 96.3746V96.4297L173.052 96.3424V96.3967L173.15 96.3094V96.3645L173.247 96.2771V96.3322L173.344 96.2449V96.3L173.442 96.2126V96.2677L173.539 96.1796V96.2347L173.636 96.1474V96.2025L173.733 96.1151V96.1702L173.831 96.0829V96.1376L173.928 96.0502V96.1054L177.108 93.2479L194.821 102.528C195.173 102.737 195.501 102.768 195.786 102.653C195.819 102.643 195.851 102.633 195.883 102.62C195.916 102.611 195.948 102.601 195.98 102.588C197.918 101.81 199.097 101.843 199.097 99.3394V74.7071C199.097 72.8685 198.231 70.8649 197.163 70.2322Z" fill="#D02342"/>
<path d="M194.821 71.2376L167.061 56.0017C165.992 55.3691 165.127 56.3467 165.127 58.1857V82.8176C165.127 84.6562 165.992 86.6602 167.061 87.2929L170.912 89.5755V97.1107L175.964 92.5695L194.821 102.528C195.888 103.161 196.754 102.184 196.754 100.345V75.7125C196.754 73.8739 195.888 71.8702 194.821 71.2376Z" fill="#FF365B"/>
<path d="M194.83 128.454C194.641 128.987 193.227 133.94 193.039 134.473C192.661 135.541 192.28 136.607 191.905 137.676C191.154 139.818 190.385 141.955 189.627 144.095C188.868 146.238 188.113 148.383 187.346 150.523C186.578 152.665 185.819 154.81 185.063 156.956C184.306 159.103 183.532 161.244 182.777 163.391C182.685 163.654 182.583 163.915 182.498 164.18C181.109 168.145 183.079 172.431 188.407 175.508C196.83 180.371 210.44 180.37 218.806 175.508C224.094 172.442 226.02 168.168 224.604 164.21L211.927 128.413C211.908 128.351 211.886 128.29 211.862 128.231C211.846 128.176 211.825 128.12 211.805 128.068V128.047C211.805 124.943 211.805 121.839 211.805 118.735C211.805 117.874 211.805 117.013 211.805 116.152C211.805 117.573 211.805 118.994 211.805 120.415C211.805 120.607 211.805 120.801 211.805 120.993C211.805 117.929 211.805 114.864 211.805 111.8C211.805 110.939 211.805 110.078 211.805 109.217C211.838 108.255 211.028 107.286 209.374 106.551C206.143 105.117 200.922 105.117 197.712 106.551C196.078 107.281 195.281 108.244 195.318 109.201L194.83 128.454Z" fill="url(#paint0_linear_64_1161)"/>
<path d="M221.388 165.123C221.378 165.094 212.356 136.449 212.354 136.418C212.288 136.123 212.065 127.092 211.532 126.785C207.147 123.218 196.399 124.619 194.873 127.095C194.697 127.17 194.329 135.814 194.204 136.558C194.199 136.59 185.295 164.993 185.285 165.022C185.275 165.052 185.266 165.081 185.256 165.111C184.127 168.475 185.822 172.099 190.338 174.706C197.536 178.861 209.166 178.86 216.315 174.706C220.796 172.102 222.547 168.484 221.388 165.123Z" fill="#FFDFA8"/>
<path d="M209.684 125.437C213.033 126.924 213.051 129.335 209.724 130.821C206.397 132.308 200.985 132.308 197.635 130.821C194.287 129.335 194.27 126.924 197.596 125.437C200.923 123.95 206.335 123.95 209.684 125.437Z" fill="#FFC557"/>
<g opacity="0.20927">
<path d="M190.263 167.754L201.208 133.377V112.161L195.511 108.971C195.367 109.26 195.291 109.555 195.302 109.85C195.301 109.89 195.3 109.93 195.302 109.971C195.301 110.012 195.3 110.053 195.302 110.093C195.301 110.134 195.3 110.174 195.302 110.215C195.301 110.256 195.3 110.296 195.302 110.337C195.301 110.377 195.3 110.418 195.302 110.458C195.301 110.499 195.3 110.539 195.302 110.58C195.301 110.621 195.3 110.661 195.302 110.702C195.301 110.742 195.3 110.783 195.302 110.824C195.301 110.865 195.3 110.905 195.302 110.945C195.301 110.986 195.3 111.027 195.302 111.067C195.301 111.108 195.3 111.148 195.302 111.189C195.301 111.23 195.3 111.27 195.302 111.311C195.301 111.352 195.3 111.392 195.302 111.432C195.301 111.473 195.3 111.514 195.302 111.555C195.301 111.595 195.3 111.635 195.302 111.676C195.301 111.717 195.3 111.757 195.302 111.798C195.301 111.838 195.3 111.879 195.302 111.919C195.301 111.96 195.3 112 195.302 112.041C195.301 112.082 195.3 112.122 195.302 112.163C195.301 112.204 195.3 112.244 195.302 112.285C195.301 112.325 195.3 112.366 195.302 112.407C195.301 112.447 195.3 112.488 195.302 112.528C195.301 112.569 195.3 112.609 195.302 112.65C195.301 112.69 195.3 112.731 195.302 112.772C195.301 112.812 195.3 112.853 195.302 112.893C195.301 112.934 195.3 112.974 195.302 113.015C195.301 113.056 195.3 113.096 195.302 113.137C195.301 113.178 195.3 113.218 195.302 113.259C195.301 113.299 195.3 113.34 195.302 113.38C195.301 113.421 195.3 113.462 195.302 113.502C195.301 113.543 195.3 113.583 195.302 113.624C195.301 113.665 195.3 113.705 195.302 113.745C195.301 113.786 195.3 113.827 195.302 113.868C195.301 113.908 195.3 113.948 195.302 113.989C195.301 114.03 195.3 114.07 195.302 114.111C195.301 114.151 195.3 114.192 195.302 114.232C195.301 114.273 195.3 114.314 195.302 114.355C195.301 114.395 195.3 114.435 195.302 114.476C195.301 114.517 195.3 114.558 195.302 114.598C195.301 114.639 195.3 114.679 195.302 114.72C195.301 114.76 195.3 114.8 195.302 114.841C195.301 114.882 195.3 114.922 195.302 114.963C195.301 115.003 195.3 115.044 195.302 115.085C195.301 115.126 195.3 115.166 195.302 115.206C195.301 115.247 195.3 115.287 195.302 115.328C195.301 115.369 195.3 115.41 195.302 115.45C195.301 115.491 195.3 115.531 195.302 115.572C195.301 115.612 195.3 115.653 195.302 115.693C195.301 115.734 195.3 115.775 195.302 115.816C195.301 115.857 195.3 115.896 195.302 115.937C195.301 115.978 195.3 116.018 195.302 116.059C195.301 116.099 195.3 116.14 195.302 116.181C195.301 116.221 195.3 116.262 195.302 116.302C195.301 116.343 195.3 116.384 195.302 116.424C195.301 116.465 195.3 116.505 195.302 116.546C195.301 116.587 195.3 116.627 195.302 116.668C195.301 116.708 195.3 116.748 195.302 116.789C195.301 116.817 195.302 116.845 195.302 116.874C195.3 116.833 195.301 121.822 195.302 121.781C195.301 121.809 195.301 121.837 195.302 121.866C195.301 121.906 195.3 121.946 195.302 121.987C195.301 122.028 195.3 122.068 195.302 122.109C195.301 122.149 195.3 122.19 195.302 122.23C195.301 122.271 195.3 122.312 195.302 122.352C195.301 122.393 195.3 122.433 195.302 122.474C195.301 122.515 195.3 122.555 195.302 122.596C195.301 122.637 195.3 122.677 195.302 122.718C195.301 122.758 195.3 122.798 195.302 122.839C195.301 122.88 195.3 122.92 195.302 122.961C195.301 123.001 195.3 123.042 195.302 123.083C195.301 123.124 195.3 123.164 195.302 123.204C195.301 123.245 195.3 123.285 195.302 123.326C195.301 123.367 195.3 123.408 195.302 123.448C195.301 123.489 195.3 123.529 195.302 123.57C195.301 123.611 195.3 123.651 195.302 123.691C195.301 123.732 195.3 123.772 195.302 123.813C195.301 123.853 195.3 123.894 195.302 123.935C195.301 123.976 195.3 124.016 195.302 124.056C195.301 124.097 195.3 124.138 195.302 124.179C195.301 124.219 195.3 124.259 195.302 124.3C195.301 124.341 195.3 124.381 195.302 124.422C195.301 124.463 195.3 124.503 195.302 124.543C195.301 124.584 195.3 124.625 195.302 124.666C195.301 124.706 195.3 124.746 195.302 124.787C195.301 124.828 195.3 124.869 195.302 124.909C195.301 124.949 195.3 124.99 195.302 125.031C195.301 125.072 195.3 125.112 195.302 125.152C195.301 125.193 195.3 125.233 195.302 125.274C195.301 125.315 195.3 125.355 195.302 125.396C195.301 125.436 195.3 125.477 195.302 125.518C195.301 125.558 195.3 125.599 195.302 125.64C195.301 125.68 195.3 125.721 195.302 125.761C195.301 125.802 195.3 125.842 195.302 125.883C195.301 125.924 195.3 125.964 195.302 126.004C195.301 126.045 195.3 126.086 195.302 126.127C195.301 126.168 195.3 126.207 195.302 126.248C195.301 126.289 195.3 126.329 195.302 126.37C195.301 126.41 195.3 126.451 195.302 126.492C195.301 126.532 195.3 126.573 195.302 126.614C195.301 126.654 195.3 126.694 195.302 126.735C195.301 126.776 195.3 126.817 195.302 126.857C195.301 126.898 195.3 126.938 195.302 126.979C195.301 127.02 195.3 127.059 195.302 127.1C195.301 127.141 195.3 127.182 195.302 127.222C195.301 127.263 195.3 127.303 195.302 127.344C195.301 127.385 195.3 127.425 195.302 127.466C195.301 127.506 195.3 127.546 195.302 127.587C195.301 127.628 195.3 127.669 195.302 127.709C195.301 127.75 195.3 127.79 195.302 127.831C195.301 127.872 195.3 127.912 195.302 127.953C195.301 127.993 195.3 128.034 195.302 128.074C195.301 128.115 195.3 128.155 195.302 128.196C195.301 128.237 195.3 128.277 195.302 128.318C195.301 128.358 195.3 128.399 195.302 128.44C195.301 128.481 195.3 128.521 195.302 128.561C195.301 128.602 195.3 128.642 195.302 128.683C195.301 128.724 195.3 128.764 195.302 128.805C195.301 128.845 195.3 128.886 195.302 128.927L195.301 128.935C195.279 128.991 195.259 129.047 195.242 129.103C195.217 129.165 195.195 129.226 195.177 129.288C195.152 129.349 195.129 129.411 195.111 129.472C195.087 129.534 195.064 129.596 195.046 129.658C195.021 129.719 194.998 129.781 194.98 129.843C194.955 129.904 194.933 129.966 194.915 130.027C194.889 130.089 194.867 130.151 194.849 130.213C194.825 130.275 194.801 130.336 194.783 130.398C194.759 130.459 194.736 130.521 194.718 130.583C194.693 130.644 194.67 130.706 194.652 130.768C194.627 130.83 194.604 130.891 194.586 130.953C194.562 131.015 194.539 131.077 194.52 131.139C194.499 131.193 194.48 131.248 194.462 131.302C194.438 131.363 194.417 131.424 194.397 131.485C194.373 131.547 194.352 131.607 194.333 131.668C194.308 131.73 194.288 131.791 194.268 131.852C194.243 131.913 194.222 131.974 194.203 132.035C194.179 132.096 194.157 132.157 194.138 132.219C194.114 132.28 194.093 132.34 194.073 132.402C194.049 132.463 194.028 132.523 194.009 132.585C193.984 132.646 193.963 132.707 193.943 132.768C193.919 132.829 193.899 132.891 193.879 132.952C193.854 133.013 193.833 133.074 193.814 133.135C193.789 133.197 193.769 133.257 193.749 133.318C193.724 133.38 193.703 133.44 193.683 133.501C193.659 133.563 193.639 133.624 193.619 133.685C193.595 133.746 193.574 133.807 193.554 133.869C193.529 133.929 193.509 133.991 193.489 134.052C193.465 134.113 193.444 134.174 193.424 134.236C193.4 134.297 193.379 134.358 193.359 134.419C193.335 134.481 193.314 134.542 193.294 134.603C193.269 134.664 193.248 134.725 193.229 134.787C193.204 134.848 193.184 134.909 193.163 134.97C193.139 135.031 193.119 135.093 193.099 135.154C193.074 135.214 193.053 135.276 193.034 135.337C193.009 135.398 192.989 135.46 192.968 135.521C192.944 135.582 192.923 135.643 192.903 135.705C192.879 135.766 192.858 135.827 192.839 135.888C192.814 135.949 192.793 136.011 192.773 136.072C192.749 136.133 192.728 136.194 192.708 136.256C192.684 136.317 192.663 136.378 192.643 136.44C192.619 136.501 192.598 136.562 192.577 136.623C192.553 136.684 192.533 136.745 192.513 136.807C192.489 136.868 192.468 136.929 192.448 136.99C192.423 137.052 192.403 137.113 192.382 137.174C192.358 137.235 192.337 137.296 192.317 137.358C192.293 137.419 192.272 137.48 192.252 137.542C192.228 137.603 192.207 137.664 192.187 137.725C192.163 137.787 192.142 137.848 192.121 137.91C192.097 137.971 192.076 138.032 192.056 138.094C192.032 138.155 192.011 138.216 191.991 138.277C191.967 138.339 191.946 138.4 191.926 138.461C191.902 138.522 191.881 138.584 191.861 138.645C191.837 138.706 191.816 138.768 191.796 138.829C191.772 138.89 191.751 138.951 191.731 139.013C191.707 139.074 191.686 139.135 191.665 139.197C191.641 139.258 191.62 139.32 191.6 139.381C191.576 139.442 191.555 139.503 191.535 139.564C191.511 139.626 191.49 139.687 191.47 139.748C191.446 139.809 191.425 139.871 191.404 139.933C191.38 139.994 191.359 140.055 191.339 140.116C191.315 140.178 191.294 140.239 191.274 140.3C191.25 140.362 191.229 140.423 191.208 140.484C191.185 140.545 191.163 140.607 191.143 140.668C191.12 140.73 191.098 140.791 191.078 140.853C191.055 140.914 191.033 140.976 191.013 141.037C190.989 141.098 190.968 141.159 190.947 141.22C190.924 141.282 190.902 141.343 190.882 141.405C190.859 141.466 190.837 141.527 190.817 141.589C190.793 141.65 190.772 141.711 190.752 141.773C190.728 141.834 190.707 141.895 190.686 141.957C190.662 142.018 190.641 142.08 190.621 142.141C190.597 142.202 190.576 142.264 190.555 142.325C190.532 142.386 190.51 142.448 190.49 142.51C190.467 142.571 190.445 142.632 190.425 142.693C190.402 142.755 190.38 142.816 190.36 142.877C190.336 142.939 190.315 143 190.294 143.061C190.271 143.123 190.249 143.184 190.229 143.246C190.206 143.307 190.184 143.369 190.163 143.43C190.14 143.491 190.118 143.553 190.098 143.614C190.075 143.675 190.053 143.737 190.033 143.798C190.009 143.86 189.988 143.921 189.967 143.983C189.944 144.044 189.922 144.105 189.902 144.167C189.879 144.228 189.857 144.29 189.837 144.351C189.814 144.412 189.792 144.474 189.771 144.535C189.748 144.597 189.726 144.658 189.706 144.719C189.683 144.781 189.661 144.842 189.641 144.904C189.618 144.965 189.596 145.026 189.576 145.088C189.552 145.149 189.531 145.211 189.51 145.272C189.487 145.333 189.465 145.395 189.444 145.456C189.421 145.518 189.399 145.579 189.379 145.64C189.356 145.702 189.334 145.763 189.314 145.825C189.291 145.886 189.269 145.947 189.249 146.009C189.226 146.07 189.203 146.132 189.183 146.193C189.16 146.254 189.138 146.316 189.118 146.377C189.094 146.439 189.073 146.5 189.052 146.562C189.029 146.623 189.008 146.685 188.987 146.746C188.964 146.808 188.942 146.869 188.922 146.931C188.899 146.992 188.877 147.054 188.856 147.115C188.833 147.176 188.811 147.238 188.791 147.299C188.768 147.36 188.745 147.422 188.725 147.483C188.702 147.544 188.68 147.606 188.66 147.668C188.637 147.729 188.615 147.79 188.595 147.852C188.571 147.913 188.55 147.975 188.529 148.036C188.506 148.098 188.484 148.159 188.464 148.221C188.441 148.282 188.419 148.344 188.398 148.405C188.376 148.466 188.353 148.528 188.333 148.59C188.31 148.651 188.287 148.713 188.267 148.774C188.244 148.835 188.222 148.897 188.202 148.958C188.179 149.02 188.157 149.081 188.137 149.143C188.114 149.204 188.091 149.265 188.071 149.327C188.048 149.388 188.026 149.45 188.006 149.511C187.983 149.573 187.96 149.634 187.941 149.695C187.918 149.757 187.895 149.818 187.875 149.88C187.852 149.941 187.83 150.003 187.809 150.064C187.786 150.126 187.764 150.187 187.744 150.249C187.721 150.31 187.699 150.372 187.678 150.433C187.656 150.494 187.633 150.556 187.613 150.618C187.59 150.679 187.568 150.741 187.548 150.802C187.525 150.863 187.502 150.925 187.482 150.987C187.459 151.048 187.437 151.109 187.417 151.171C187.394 151.232 187.371 151.294 187.351 151.355C187.329 151.417 187.306 151.479 187.286 151.54C187.263 151.601 187.241 151.663 187.221 151.724C187.198 151.785 187.175 151.847 187.155 151.909C187.133 151.97 187.11 152.031 187.09 152.093C187.067 152.154 187.044 152.216 187.024 152.278C187.002 152.339 186.979 152.401 186.958 152.462C186.936 152.523 186.913 152.585 186.893 152.647C186.87 152.708 186.848 152.769 186.828 152.831C186.805 152.892 186.783 152.954 186.762 153.015C186.74 153.077 186.717 153.138 186.697 153.199C186.674 153.261 186.651 153.323 186.631 153.385C186.609 153.446 186.586 153.507 186.566 153.569C186.543 153.63 186.52 153.692 186.5 153.753C186.478 153.815 186.455 153.876 186.435 153.937C186.413 153.999 186.39 154.061 186.37 154.122C186.347 154.184 186.324 154.245 186.304 154.307C186.282 154.368 186.259 154.429 186.238 154.491C186.216 154.552 186.193 154.614 186.173 154.675C186.151 154.737 186.128 154.799 186.108 154.86C186.085 154.922 186.062 154.983 186.042 155.045C186.019 155.106 185.997 155.167 185.976 155.229C185.954 155.29 185.931 155.352 185.911 155.414C185.889 155.475 185.866 155.537 185.845 155.598C185.823 155.66 185.8 155.721 185.78 155.783C185.758 155.844 185.735 155.906 185.715 155.968C185.692 156.029 185.669 156.09 185.649 156.152C185.627 156.213 185.604 156.275 185.584 156.336C185.562 156.398 185.538 156.46 185.518 156.521C185.496 156.583 185.473 156.644 185.453 156.705C185.431 156.767 185.407 156.828 185.387 156.89C185.365 156.951 185.342 157.013 185.322 157.075C185.299 157.136 185.276 157.198 185.256 157.259C185.234 157.321 185.211 157.383 185.191 157.444C185.169 157.506 185.145 157.567 185.125 157.628C185.103 157.69 185.08 157.751 185.059 157.813C185.037 157.874 185.014 157.936 184.994 157.998C184.972 158.059 184.949 158.12 184.929 158.182C184.906 158.244 184.883 158.305 184.863 158.367C184.841 158.428 184.818 158.49 184.797 158.551C184.776 158.613 184.752 158.674 184.732 158.736C184.71 158.797 184.687 158.859 184.666 158.92C184.645 158.982 184.621 159.043 184.601 159.105C184.579 159.166 184.555 159.228 184.535 159.29C184.514 159.351 184.49 159.412 184.47 159.474C184.448 159.535 184.425 159.597 184.404 159.659C184.383 159.72 184.359 159.782 184.339 159.843C184.317 159.905 184.294 159.967 184.274 160.028C184.252 160.089 184.228 160.151 184.208 160.212C184.186 160.274 184.162 160.335 184.143 160.398C184.12 160.459 184.097 160.52 184.077 160.582C184.055 160.643 184.032 160.705 184.012 160.767C183.99 160.828 183.966 160.89 183.946 160.951C183.924 161.013 183.9 161.074 183.88 161.135C183.858 161.197 183.835 161.259 183.815 161.32C183.793 161.382 183.769 161.443 183.75 161.505C183.727 161.566 183.704 161.628 183.684 161.689C183.662 161.751 183.638 161.812 183.618 161.874C183.596 161.935 183.573 161.997 183.553 162.059C183.531 162.12 183.507 162.181 183.487 162.243C183.465 162.304 183.442 162.366 183.421 162.428C183.402 162.485 183.38 162.541 183.361 162.598C184.773 164.308 186.955 166.228 190.263 167.754Z" fill="white"/>
</g>
<path d="M209.552 107.163C212.828 108.618 212.846 110.975 209.591 112.43C206.337 113.884 201.043 113.885 197.767 112.43C194.491 110.976 194.474 108.618 197.729 107.163C200.984 105.709 206.277 105.709 209.552 107.163Z" fill="#152846"/>
<path d="M208.287 110.615C205.746 111.753 201.435 111.753 198.874 110.615C198.014 110.234 197.696 109.87 197.628 109.734L197.631 109.734C197.698 109.602 198.009 109.247 198.842 108.873C201.384 107.735 205.695 107.736 208.255 108.873C209.115 109.254 209.434 109.619 209.501 109.754C209.434 109.887 209.123 110.24 208.287 110.615ZM209.613 105.706C206.201 104.189 200.871 104.19 197.478 105.706C194.685 106.953 194.271 108.692 194.272 109.627C194.274 110.561 194.697 112.312 197.515 113.564C199.443 114.348 201.509 114.735 203.59 114.7C205.667 114.736 207.73 114.35 209.653 113.564C212.445 112.317 212.858 110.577 212.857 109.644C212.856 108.71 212.433 106.958 209.613 105.706Z" fill="url(#paint1_linear_64_1161)"/>
<path d="M206.798 94.6973C206.798 95.2448 206.354 95.6884 205.807 95.6884C205.26 95.6884 204.816 95.2448 204.816 94.6973C204.816 94.1502 205.26 93.7069 205.807 93.7069C206.354 93.7069 206.798 94.1502 206.798 94.6973Z" fill="#EABD70"/>
<g opacity="0.934184">
<path opacity="0.934184" d="M114.259 100.124C130.28 100.124 143.289 105.99 143.289 113.214C143.289 120.439 130.28 126.305 114.259 126.305C98.2373 126.305 85.229 120.439 85.229 113.214C85.229 105.99 98.2373 100.124 114.259 100.124Z" fill="#DBA75D"/>
</g>
<g opacity="0.949591">
<path opacity="0.949591" d="M101.41 127.376C100.749 127.758 100.389 128.25 100.379 128.777C100.369 129.307 100.717 129.807 101.358 130.185L107.616 133.876C107.804 133.986 108.112 133.987 108.304 133.878C108.496 133.767 108.497 133.59 108.311 133.48L102.053 129.79C101.594 129.519 101.344 129.16 101.351 128.781C101.358 128.404 101.617 128.049 102.078 127.783C102.559 127.51 103.178 127.365 103.835 127.367C104.491 127.37 105.105 127.521 105.565 127.792L113.515 132.48C114.139 132.848 114.131 133.443 113.499 133.808C112.869 134.166 111.798 134.162 111.19 133.803L105.851 130.655C105.705 130.57 105.624 130.452 105.626 130.331C105.629 130.211 105.712 130.097 105.861 130.011C106.173 129.834 106.674 129.836 106.977 130.015L110.623 132.165C110.811 132.276 111.117 132.277 111.309 132.168C111.501 132.057 111.504 131.88 111.317 131.77L107.671 129.619C106.993 129.22 105.878 129.215 105.183 129.609C104.844 129.804 104.659 130.058 104.655 130.328C104.65 130.596 104.833 130.86 105.157 131.051L110.495 134.198C110.98 134.484 111.63 134.644 112.324 134.647C113.019 134.65 113.674 134.496 114.17 134.214C115.195 133.623 115.208 132.673 114.21 132.085L106.26 127.396C105.619 127.018 104.761 126.808 103.845 126.805C102.929 126.801 102.063 127.003 101.41 127.376Z" fill="#314891"/>
</g>
<path d="M159.543 76.4677V78.5306L114.445 104.579L69.3225 78.5276V76.4651L159.543 76.4677Z" fill="#375EA9"/>
<path d="M89.2842 83.5508V107.489C89.2842 115.79 100.647 122.519 114.663 122.519C128.679 122.519 140.042 115.79 140.042 107.489V83.5508H89.2842Z" fill="#264984"/>
<g opacity="0.11319">
<path d="M89.7389 90.3154C89.0541 90.5085 96.6272 100.914 109.154 107.915C116.449 111.991 130.323 112.887 138.239 113.05C139.398 111.329 140.041 109.454 140.041 107.489V89.6535L106.864 84.1523C106.864 84.1523 90.7851 90.0203 89.7389 90.3154Z" fill="black"/>
</g>
<path d="M69.3225 78.5276L114.432 52.4861L159.543 78.5302L114.445 104.579L69.3225 78.5276Z" fill="#3960A7"/>
<path d="M69.3225 76.4651L114.432 50.4236L159.543 76.4677L114.445 102.516L69.3225 76.4651Z" fill="#264984"/>
<path d="M114.445 104.579V102.517L69.3225 76.4651V78.5276L114.445 104.579Z" fill="#4E75C1"/>
<path d="M136.771 116.271H138.658C139.748 116.271 140.608 115.345 140.529 114.258L139.585 109.356C139.514 108.376 138.697 107.618 137.715 107.618C136.732 107.618 135.916 108.376 135.844 109.356L134.901 114.258C134.821 115.345 135.682 116.271 136.771 116.271Z" fill="#EABD70"/>
<path d="M137.074 113.447H137.984L137.967 88.4057L113.28 73.8499L112.818 74.6332L137.058 88.9243L137.074 113.447Z" fill="#EABD70"/>
<path d="M139.817 104.142C139.817 105.309 138.871 106.256 137.703 106.256C136.535 106.256 135.588 105.309 135.588 104.142C135.588 102.974 136.535 102.027 137.703 102.027C138.871 102.027 139.817 102.974 139.817 104.142Z" fill="#EABD70"/>
<path d="M88.1725 199.262L88.1747 199.927C88.174 199.916 88.1747 199.905 88.1747 199.894C88.186 199.225 88.6465 198.595 89.467 198.122C90.3209 197.637 91.4222 197.378 92.5892 197.383C93.7551 197.388 94.8468 197.657 95.6635 198.137L95.6616 197.473C94.8449 196.992 93.7533 196.723 92.5874 196.718C91.4196 196.714 90.3194 196.973 89.4647 197.458C88.645 197.931 88.1845 198.561 88.1732 199.23L88.1725 199.262Z" fill="#FF7600"/>
<path d="M88.163 199.096L88.1652 199.761C88.1645 199.75 88.1652 199.739 88.1652 199.728C88.1765 199.059 88.637 198.43 89.4575 197.956C89.6562 197.843 89.8685 197.743 90.0923 197.655L90.0908 196.991C89.867 197.078 89.6543 197.179 89.4552 197.292C88.6355 197.765 88.175 198.395 88.1637 199.063L88.163 199.096Z" fill="#FF7600"/>
<path d="M90.0905 196.99L90.0923 197.655C90.2633 197.588 90.4411 197.528 90.6241 197.475L90.6226 196.81C90.4396 196.863 90.2615 196.923 90.0905 196.99Z" fill="#FF7600"/>
<path d="M90.6227 196.811L90.6246 197.475C90.7731 197.433 90.9249 197.396 91.0798 197.363L91.0779 196.699C90.9231 196.731 90.7712 196.769 90.6227 196.811Z" fill="#FF7600"/>
<path d="M91.078 196.7L91.0799 197.364C91.2194 197.336 91.3615 197.311 91.5059 197.291L91.504 196.626C91.3596 196.646 91.2175 196.671 91.078 196.7Z" fill="#FF7600"/>
<path d="M91.5042 196.625L91.506 197.29C91.6444 197.27 91.7843 197.255 91.926 197.243L91.9241 196.578C91.7824 196.59 91.6425 196.606 91.5042 196.625Z" fill="#FF7600"/>
<path d="M91.9242 196.578L91.9261 197.242C92.0678 197.231 92.2115 197.223 92.3562 197.219L92.3547 196.555C92.21 196.558 92.066 196.566 91.9242 196.578Z" fill="#FF7600"/>
<path d="M92.3547 196.556L92.3566 197.22C92.4309 197.218 92.5047 197.217 92.5797 197.217C92.6558 197.217 92.7312 197.219 92.8066 197.222L92.8047 196.557C92.7293 196.555 92.654 196.553 92.5778 196.553C92.5032 196.553 92.429 196.553 92.3547 196.556Z" fill="#FF7600"/>
<path d="M92.8046 196.557L92.8064 197.222C92.9699 197.227 93.1312 197.238 93.2909 197.254L93.2894 196.59C93.1297 196.574 92.9681 196.563 92.8046 196.557Z" fill="#FF7600"/>
<path d="M93.2896 196.59L93.2914 197.254C93.4804 197.273 93.6661 197.299 93.848 197.332L93.8461 196.668C93.6642 196.635 93.4786 196.609 93.2896 196.59Z" fill="#FF7600"/>
<path d="M93.8461 196.667L93.8479 197.331C94.1284 197.382 94.3996 197.449 94.6565 197.532L94.6546 196.868C94.3973 196.785 94.1269 196.718 93.8461 196.667Z" fill="#FF7600"/>
<path d="M94.6542 196.867L94.656 197.532C95.0187 197.648 95.3543 197.796 95.6536 197.972L95.6517 197.307C95.3524 197.131 95.0168 196.984 94.6542 196.867Z" fill="#FF7600"/>
<path d="M86.3818 199.224L86.3837 199.889C86.386 200.815 87.0017 201.688 88.1245 202.349L88.123 201.684C87.0002 201.023 86.3841 200.151 86.3818 199.224Z" fill="#FF7600"/>
<path d="M86.25 198.974L86.2515 199.638C86.2515 199.656 86.2518 199.675 86.2518 199.694L86.2506 199.029C86.25 199.011 86.25 198.993 86.25 198.974Z" fill="#FF7600"/>
<path d="M86.2509 199.03L86.2527 199.695C86.2565 199.813 86.27 199.93 86.2932 200.047L86.2917 199.382C86.2685 199.266 86.2546 199.148 86.2509 199.03Z" fill="#FF7600"/>
<path d="M86.2917 199.381L86.2936 200.046C86.3165 200.161 86.3491 200.275 86.3911 200.388L86.3893 199.723C86.3473 199.611 86.3146 199.496 86.2917 199.381Z" fill="#FF7600"/>
<path d="M86.3887 199.723L86.3905 200.387C86.4344 200.504 86.4881 200.618 86.5514 200.73L86.5496 200.066C86.4862 199.954 86.4325 199.839 86.3887 199.723Z" fill="#FF7600"/>
<path d="M86.5498 200.066L86.5517 200.73C86.6207 200.853 86.7013 200.973 86.7935 201.09L86.7917 200.426C86.6994 200.309 86.6188 200.189 86.5498 200.066Z" fill="#FF7600"/>
<path d="M86.7915 200.425L86.7934 201.09C86.9029 201.229 87.0278 201.364 87.1691 201.495L87.1673 200.83C87.0259 200.7 86.901 200.565 86.7915 200.425Z" fill="#FF7600"/>
<path d="M87.1676 200.831L87.1695 201.495C87.3885 201.697 87.645 201.888 87.9371 202.065L87.9356 201.401C87.6435 201.224 87.3866 201.033 87.1676 200.831Z" fill="#FF7600"/>
<path d="M87.9352 201.401L87.9371 202.065C87.9554 202.076 87.9742 202.088 87.9925 202.099L87.9907 201.434L87.9352 201.401Z" fill="#FF7600"/>
<path d="M95.6621 202.068L95.664 202.732L95.6644 202.723C95.6692 202.509 95.8166 202.307 96.081 202.154C96.6364 201.838 97.5266 201.841 98.0651 202.16L98.0633 201.496C97.5248 201.177 96.6345 201.174 96.0791 201.49C95.8147 201.643 95.6674 201.844 95.6621 202.058V202.068Z" fill="#FF7600"/>
<path d="M95.4402 202.046L95.4421 202.71L95.4424 202.701C95.4473 202.486 95.5947 202.285 95.8591 202.132C95.9214 202.097 95.9874 202.065 96.0567 202.038L96.0541 201.374C95.9851 201.401 95.9195 201.432 95.8572 201.468C95.5928 201.62 95.4454 201.822 95.4402 202.036V202.046Z" fill="#FF7600"/>
<path d="M96.0544 201.374L96.0567 202.038C96.1118 202.017 96.1695 201.998 96.228 201.981L96.2262 201.316C96.1669 201.333 96.1099 201.353 96.0544 201.374Z" fill="#FF7600"/>
<path d="M96.2258 201.317L96.2277 201.982C96.2757 201.968 96.3248 201.956 96.3743 201.946L96.3725 201.281C96.323 201.291 96.2738 201.304 96.2258 201.317Z" fill="#FF7600"/>
<path d="M96.3728 201.28L96.3747 201.945C96.4208 201.936 96.4677 201.928 96.5142 201.921L96.5123 201.256C96.4651 201.263 96.4189 201.271 96.3728 201.28Z" fill="#FF7600"/>
<path d="M96.512 201.257L96.5138 201.921C96.5592 201.914 96.6046 201.91 96.6507 201.905L96.6488 201.241C96.6027 201.245 96.5573 201.25 96.512 201.257Z" fill="#FF7600"/>
<path d="M96.6487 201.24L96.6506 201.904C96.6967 201.901 96.7424 201.898 96.7885 201.897L96.787 201.233C96.7409 201.234 96.694 201.237 96.6487 201.24Z" fill="#FF7600"/>
<path d="M96.7871 201.233L96.789 201.898C96.837 201.897 96.8846 201.896 96.9326 201.898L96.9307 201.234C96.8827 201.232 96.8351 201.232 96.7871 201.233Z" fill="#FF7600"/>
<path d="M96.9309 201.233L96.9328 201.897C96.9849 201.899 97.0363 201.903 97.0877 201.908L97.0858 201.243C97.0344 201.238 96.983 201.235 96.9309 201.233Z" fill="#FF7600"/>
<path d="M97.0859 201.244L97.0878 201.908C97.1482 201.914 97.2082 201.923 97.2667 201.934L97.2648 201.269C97.2063 201.259 97.1463 201.25 97.0859 201.244Z" fill="#FF7600"/>
<path d="M97.265 201.27L97.2669 201.934C97.358 201.95 97.4458 201.973 97.5301 202L97.5282 201.335C97.4439 201.308 97.3561 201.286 97.265 201.27Z" fill="#FF7600"/>
<path d="M97.5282 201.334L97.5301 201.999C97.6433 202.036 97.7483 202.082 97.8428 202.138L97.8413 201.474C97.7468 201.418 97.6407 201.372 97.5282 201.334Z" fill="#FF7600"/>
<path d="M93.9324 201.923L93.9342 202.587C93.9354 203.056 94.2597 203.515 94.8271 203.85L94.8252 203.185C94.2579 202.851 93.9335 202.392 93.9324 201.923Z" fill="#FF7600"/>
<path d="M93.7021 201.6L93.7037 202.264L93.704 202.291L93.7028 201.627L93.7021 201.6Z" fill="#FF7600"/>
<path d="M93.703 201.627L93.7048 202.292C93.7066 202.351 93.7128 202.409 93.7244 202.468L93.7222 201.803C93.7113 201.745 93.7048 201.686 93.703 201.627Z" fill="#FF7600"/>
<path d="M93.7218 201.802L93.7241 202.467C93.7353 202.526 93.7522 202.584 93.7743 202.642L93.772 201.978C93.7507 201.919 93.7338 201.861 93.7218 201.802Z" fill="#FF7600"/>
<path d="M93.7727 201.978L93.775 202.642C93.7978 202.703 93.8256 202.763 93.859 202.821L93.8571 202.156C93.8237 202.098 93.7956 202.038 93.7727 201.978Z" fill="#FF7600"/>
<path d="M93.8571 202.156L93.8589 202.821C93.8953 202.885 93.9377 202.948 93.9857 203.01L93.9838 202.345C93.9354 202.284 93.8931 202.221 93.8571 202.156Z" fill="#FF7600"/>
<path d="M93.9841 202.346L93.986 203.01C94.0434 203.083 94.1094 203.154 94.1829 203.222L94.181 202.558C94.1075 202.489 94.0415 202.419 93.9841 202.346Z" fill="#FF7600"/>
<path d="M94.1807 202.558L94.1825 203.222C94.2939 203.325 94.4229 203.422 94.5696 203.511L94.5681 202.846C94.4214 202.758 94.292 202.661 94.1807 202.558Z" fill="#FF7600"/>
<path d="M94.5684 202.846L94.5702 203.51L94.5963 203.527L94.5945 202.862L94.5684 202.846Z" fill="#FF7600"/>
<path d="M98.1748 201.507L98.1767 202.171L104.656 205.992L104.654 205.328L98.1748 201.507Z" fill="#FF7600"/>
<path d="M106.126 205.471L106.125 204.807C106.125 204.937 106.038 205.067 105.865 205.168C105.523 205.361 104.978 205.359 104.644 205.162L104.646 205.827C104.98 206.023 105.525 206.026 105.867 205.832C106.04 205.732 106.126 205.601 106.126 205.471Z" fill="#FF7600"/>
<path d="M104.627 204.831L104.629 205.495C104.687 205.53 104.753 205.559 104.823 205.581L104.821 204.916C104.751 204.894 104.685 204.866 104.627 204.831Z" fill="#FF7600"/>
<path d="M104.821 204.916L104.823 205.581C104.875 205.598 104.93 205.611 104.986 205.622L104.984 204.957C104.928 204.947 104.873 204.934 104.821 204.916Z" fill="#FF7600"/>
<path d="M104.983 204.957L104.985 205.621C105.022 205.628 105.058 205.633 105.096 205.637L105.094 204.973C105.056 204.969 105.02 204.964 104.983 204.957Z" fill="#FF7600"/>
<path d="M105.095 204.973L105.097 205.637C105.128 205.64 105.16 205.642 105.192 205.644L105.19 204.979C105.158 204.978 105.126 204.976 105.095 204.973Z" fill="#FF7600"/>
<path d="M105.189 204.979L105.191 205.644C105.221 205.644 105.251 205.644 105.28 205.644L105.278 204.979C105.248 204.98 105.219 204.98 105.189 204.979Z" fill="#FF7600"/>
<path d="M105.278 204.979L105.28 205.644C105.308 205.643 105.337 205.642 105.365 205.639L105.363 204.975C105.334 204.977 105.306 204.979 105.278 204.979Z" fill="#FF7600"/>
<path d="M105.363 204.976L105.365 205.64C105.393 205.638 105.42 205.634 105.449 205.63L105.447 204.966C105.419 204.97 105.391 204.974 105.363 204.976Z" fill="#FF7600"/>
<path d="M105.447 204.966L105.449 205.63C105.477 205.626 105.506 205.621 105.534 205.615L105.532 204.951C105.504 204.957 105.476 204.961 105.447 204.966Z" fill="#FF7600"/>
<path d="M105.532 204.951L105.534 205.615C105.565 205.609 105.595 205.601 105.624 205.593L105.622 204.929C105.593 204.937 105.562 204.944 105.532 204.951Z" fill="#FF7600"/>
<path d="M105.622 204.928L105.624 205.593C105.66 205.583 105.695 205.571 105.729 205.557L105.727 204.893C105.693 204.906 105.658 204.918 105.622 204.928Z" fill="#FF7600"/>
<path d="M105.727 204.893L105.729 205.557C105.771 205.54 105.811 205.522 105.849 205.501C106.023 205.4 106.109 205.269 106.109 205.14L106.107 204.476C106.107 204.605 106.02 204.736 105.847 204.836C105.809 204.857 105.769 204.876 105.727 204.893Z" fill="#FF7600"/>
<path d="M95.6655 197.556L95.6674 198.22L109.796 206.553L109.794 205.888L95.6655 197.556Z" fill="#FF7600"/>
<path d="M110.469 207.699L110.467 207.035C110.466 206.613 110.192 206.191 109.644 205.867L109.646 206.532C110.194 206.855 110.468 207.277 110.469 207.699Z" fill="#FF7600"/>
<path d="M109.344 205.824L109.346 206.488L109.366 206.501L109.365 205.836L109.344 205.824Z" fill="#FF7600"/>
<path d="M109.365 205.837L109.366 206.501C109.505 206.584 109.626 206.675 109.729 206.77L109.727 206.105C109.625 206.011 109.503 205.921 109.365 205.837Z" fill="#FF7600"/>
<path d="M109.728 206.106L109.73 206.77C109.798 206.833 109.858 206.898 109.91 206.963L109.908 206.299C109.856 206.233 109.796 206.169 109.728 206.106Z" fill="#FF7600"/>
<path d="M109.908 206.299L109.91 206.963C109.954 207.02 109.993 207.078 110.026 207.136L110.024 206.472C109.991 206.413 109.952 206.355 109.908 206.299Z" fill="#FF7600"/>
<path d="M110.024 206.472L110.026 207.136C110.057 207.19 110.083 207.245 110.103 207.3L110.101 206.636C110.08 206.58 110.054 206.526 110.024 206.472Z" fill="#FF7600"/>
<path d="M110.101 206.636L110.103 207.3C110.123 207.354 110.139 207.409 110.15 207.463L110.148 206.799C110.137 206.744 110.121 206.69 110.101 206.636Z" fill="#FF7600"/>
<path d="M110.148 206.799L110.15 207.463C110.161 207.519 110.167 207.574 110.169 207.63L110.166 206.966C110.165 206.91 110.159 206.854 110.148 206.799Z" fill="#FF7600"/>
<path d="M110.167 206.966L110.169 207.63V207.656L110.168 206.992L110.167 206.966Z" fill="#FF7600"/>
<path d="M88.1887 201.81L88.1906 202.474L99.3127 209.032L99.3108 208.368L88.1887 201.81Z" fill="#FF7600"/>
<path d="M100.784 208.511L100.782 207.847C100.782 207.977 100.696 208.107 100.523 208.207C100.183 208.401 99.635 208.399 99.3016 208.202L99.3035 208.866C99.6369 209.063 100.184 209.065 100.525 208.871C100.698 208.771 100.784 208.641 100.784 208.511Z" fill="#FF7600"/>
<path d="M99.2849 207.87L99.2868 208.534C99.3453 208.569 99.4106 208.598 99.4796 208.62L99.4777 207.955C99.4083 207.933 99.3434 207.905 99.2849 207.87Z" fill="#FF7600"/>
<path d="M99.4775 207.956L99.4794 208.62C99.5319 208.637 99.5863 208.651 99.6425 208.661L99.6403 207.996C99.5848 207.986 99.53 207.973 99.4775 207.956Z" fill="#FF7600"/>
<path d="M99.6404 207.997L99.6426 208.661C99.6786 208.668 99.7157 208.673 99.7529 208.677L99.751 208.012C99.7139 208.008 99.6768 208.003 99.6404 207.997Z" fill="#FF7600"/>
<path d="M99.751 208.012L99.7529 208.676C99.7847 208.679 99.8162 208.682 99.8485 208.683L99.8466 208.018C99.8143 208.017 99.7828 208.015 99.751 208.012Z" fill="#FF7600"/>
<path d="M99.8467 208.018L99.8486 208.683C99.8778 208.684 99.9078 208.684 99.9371 208.683L99.9352 208.019C99.9052 208.019 99.8759 208.019 99.8467 208.018Z" fill="#FF7600"/>
<path d="M99.9352 208.018L99.9371 208.683C99.9659 208.682 99.9937 208.68 100.022 208.678L100.02 208.014C99.9922 208.016 99.9633 208.018 99.9352 208.018Z" fill="#FF7600"/>
<path d="M100.02 208.014L100.022 208.679C100.051 208.677 100.079 208.673 100.107 208.669L100.105 208.005C100.077 208.009 100.048 208.012 100.02 208.014Z" fill="#FF7600"/>
<path d="M100.105 208.005L100.107 208.669C100.136 208.665 100.164 208.66 100.192 208.654L100.19 207.99C100.162 207.995 100.134 208 100.105 208.005Z" fill="#FF7600"/>
<path d="M100.19 207.99L100.192 208.654C100.223 208.648 100.253 208.64 100.283 208.632L100.281 207.968C100.252 207.976 100.221 207.983 100.19 207.99Z" fill="#FF7600"/>
<path d="M100.281 207.967L100.282 208.632C100.319 208.621 100.354 208.609 100.388 208.596L100.386 207.931C100.352 207.945 100.317 207.957 100.281 207.967Z" fill="#FF7600"/>
<path d="M100.386 207.932L100.388 208.597C100.43 208.58 100.471 208.561 100.508 208.539C100.681 208.439 100.768 208.309 100.768 208.179L100.766 207.515C100.766 207.645 100.679 207.775 100.507 207.875C100.469 207.896 100.429 207.915 100.386 207.932Z" fill="#FF7600"/>
<path d="M94.9404 203.347L94.9423 204.012L104.429 209.606L104.428 208.942L94.9404 203.347Z" fill="#FF7600"/>
<path d="M112.177 207.702L112.175 207.037C112.177 207.732 111.716 208.429 110.793 208.962C109.911 209.464 108.747 209.737 107.511 209.732C106.278 209.727 105.123 209.443 104.26 208.934L104.263 209.598C105.124 210.107 106.28 210.391 107.513 210.396C108.749 210.401 109.912 210.128 110.794 209.626C111.718 209.093 112.179 208.396 112.177 207.702Z" fill="#FF7600"/>
<path d="M103.927 208.917L103.929 209.581C104.244 209.768 104.6 209.925 104.984 210.048L104.982 209.383C104.598 209.26 104.243 209.104 103.927 208.917Z" fill="#FF7600"/>
<path d="M104.982 209.383L104.984 210.048C105.256 210.135 105.542 210.206 105.838 210.259L105.836 209.595C105.54 209.541 105.254 209.47 104.982 209.383Z" fill="#FF7600"/>
<path d="M105.836 209.595L105.838 210.259C106.03 210.294 106.226 210.321 106.426 210.341L106.424 209.677C106.224 209.656 106.028 209.629 105.836 209.595Z" fill="#FF7600"/>
<path d="M106.424 209.677L106.426 210.341C106.594 210.358 106.765 210.369 106.937 210.375L106.935 209.71C106.762 209.705 106.592 209.694 106.424 209.677Z" fill="#FF7600"/>
<path d="M106.936 209.71L106.938 210.375C107.018 210.377 107.099 210.379 107.179 210.379C107.26 210.38 107.339 210.379 107.419 210.377L107.416 209.712C107.337 209.714 107.258 209.716 107.178 209.715C107.097 209.714 107.016 209.713 106.936 209.71Z" fill="#FF7600"/>
<path d="M107.417 209.712L107.419 210.377C107.573 210.373 107.725 210.364 107.876 210.352L107.874 209.688C107.723 209.701 107.57 209.708 107.417 209.712Z" fill="#FF7600"/>
<path d="M107.874 209.688L107.875 210.352C108.026 210.34 108.175 210.323 108.321 210.302L108.319 209.638C108.173 209.659 108.024 209.675 107.874 209.688Z" fill="#FF7600"/>
<path d="M108.32 209.638L108.321 210.303C108.475 210.281 108.626 210.255 108.773 210.224L108.771 209.56C108.624 209.591 108.473 209.617 108.32 209.638Z" fill="#FF7600"/>
<path d="M108.771 209.56L108.773 210.224C108.937 210.19 109.097 210.151 109.253 210.107L109.251 209.442C109.095 209.487 108.935 209.526 108.771 209.56Z" fill="#FF7600"/>
<path d="M109.251 209.442L109.253 210.107C109.445 210.052 109.631 209.99 109.809 209.919L109.808 209.255C109.629 209.325 109.443 209.388 109.251 209.442Z" fill="#FF7600"/>
<path d="M109.807 209.255L109.809 209.919C110.039 209.829 110.257 209.725 110.461 209.61C111.384 209.076 111.845 208.379 111.843 207.685L111.841 207.021C111.843 207.715 111.382 208.412 110.459 208.946C110.255 209.061 110.037 209.164 109.807 209.255Z" fill="#FF7600"/>
<path d="M88.458 196.953C87.2831 197.63 86.6437 198.506 86.6253 199.441C86.6085 200.384 87.2261 201.273 88.3661 201.945L99.4882 208.504C99.8216 208.701 100.369 208.702 100.71 208.509C101.051 208.312 101.055 207.997 100.723 207.802L89.601 201.243C88.7853 200.761 88.341 200.124 88.3541 199.448C88.3653 198.78 88.8258 198.15 89.6456 197.677C90.5002 197.191 91.6008 196.933 92.7686 196.937C93.9345 196.942 95.0261 197.211 95.8428 197.692L109.971 206.024C111.081 206.679 111.067 207.735 109.942 208.384C108.822 209.02 106.92 209.012 105.839 208.375L96.351 202.78C96.0926 202.628 95.9467 202.418 95.9505 202.205C95.9557 201.991 96.1035 201.789 96.3678 201.637C96.9232 201.32 97.8131 201.323 98.3516 201.643L104.831 205.464C105.165 205.661 105.71 205.663 106.051 205.47C106.393 205.273 106.398 204.957 106.066 204.762L99.585 200.94C98.3801 200.229 96.3975 200.221 95.1641 200.921C94.5615 201.268 94.233 201.719 94.2247 202.199C94.2157 202.676 94.5412 203.144 95.1176 203.483L104.604 209.077C105.467 209.586 106.622 209.87 107.855 209.875C109.091 209.881 110.255 209.607 111.137 209.106C112.957 208.055 112.979 206.368 111.205 205.321L97.0777 196.989C95.9388 196.317 94.4145 195.943 92.7858 195.937C91.158 195.931 89.6197 196.291 88.458 196.953Z" fill="#FF7600"/>
<path d="M61.9386 166.873L61.9367 167.404C61.9367 167.396 61.9367 167.387 61.9367 167.378C61.9269 166.843 61.5591 166.339 60.9032 165.961C60.2196 165.572 59.3391 165.365 58.4053 165.369C57.473 165.373 56.5997 165.588 55.946 165.973L55.9472 165.441C56.6008 165.056 57.4738 164.842 58.4068 164.838C59.3406 164.834 60.2214 165.041 60.9043 165.429C61.5609 165.808 61.9288 166.312 61.9378 166.847C61.9386 166.855 61.9386 166.864 61.9386 166.873Z" fill="#DBA75D"/>
<path d="M61.9304 166.813L61.9286 167.345C61.9286 167.337 61.9286 167.327 61.9286 167.319C61.9188 166.783 61.5509 166.28 60.8951 165.901C60.7361 165.811 60.5658 165.73 60.387 165.66L60.3888 165.129C60.5673 165.199 60.7368 165.279 60.8962 165.37C61.5528 165.748 61.9207 166.252 61.9297 166.788C61.9304 166.796 61.9304 166.805 61.9304 166.813Z" fill="#DBA75D"/>
<path d="M60.3883 165.129L60.3865 165.66C60.2496 165.606 60.1071 165.558 59.9604 165.516L59.9623 164.985C60.109 165.026 60.2515 165.074 60.3883 165.129Z" fill="#DBA75D"/>
<path d="M59.9625 164.985L59.9607 165.517C59.8422 165.483 59.7207 165.453 59.5969 165.427L59.598 164.895C59.7225 164.921 59.844 164.951 59.9625 164.985Z" fill="#DBA75D"/>
<path d="M59.5982 164.896L59.5971 165.428C59.4853 165.405 59.3714 165.385 59.2559 165.369L59.2577 164.837C59.3732 164.854 59.4868 164.873 59.5982 164.896Z" fill="#DBA75D"/>
<path d="M59.2579 164.837L59.2561 165.369C59.1458 165.352 59.0337 165.34 58.9204 165.331L58.9215 164.799C59.0352 164.808 59.1473 164.821 59.2579 164.837Z" fill="#DBA75D"/>
<path d="M58.9212 164.798L58.9201 165.33C58.8064 165.32 58.6917 165.314 58.5754 165.311L58.5773 164.78C58.6928 164.783 58.8076 164.789 58.9212 164.798Z" fill="#DBA75D"/>
<path d="M58.5773 164.78L58.5755 165.312C58.5162 165.311 58.4573 165.31 58.3973 165.31C58.337 165.31 58.2762 165.311 58.2158 165.313L58.2169 164.782C58.2773 164.78 58.3377 164.779 58.3988 164.779C58.4581 164.778 58.5181 164.778 58.5773 164.78Z" fill="#DBA75D"/>
<path d="M58.2168 164.781L58.2156 165.313C58.0844 165.317 57.9554 165.326 57.8279 165.338L57.8298 164.807C57.9573 164.794 58.0863 164.785 58.2168 164.781Z" fill="#DBA75D"/>
<path d="M57.8298 164.808L57.8279 165.34C57.6764 165.355 57.5283 165.376 57.3828 165.402L57.3839 164.87C57.5294 164.844 57.6783 164.823 57.8298 164.808Z" fill="#DBA75D"/>
<path d="M57.3839 164.87L57.3827 165.401C57.1585 165.442 56.9417 165.496 56.7358 165.562L56.737 165.03C56.9428 164.964 57.1596 164.911 57.3839 164.87Z" fill="#DBA75D"/>
<path d="M56.7371 165.03L56.7356 165.561C56.4454 165.655 56.1769 165.773 55.938 165.913L55.9391 165.382C56.1784 165.241 56.4476 165.123 56.7371 165.03Z" fill="#DBA75D"/>
<path d="M63.2711 166.842L63.27 167.373C63.2677 168.114 62.7749 168.812 61.8772 169.341L61.8783 168.809C62.7764 168.28 63.2692 167.583 63.2711 166.842Z" fill="#DBA75D"/>
<path d="M63.1638 166.716L63.1634 167.247C63.1634 167.262 63.1631 167.276 63.1631 167.291L63.1635 166.76C63.1638 166.745 63.1638 166.73 63.1638 166.716Z" fill="#DBA75D"/>
<path d="M63.1629 166.761L63.1618 167.292C63.1589 167.387 63.1484 167.481 63.1306 167.574L63.1317 167.042C63.1502 166.95 63.1607 166.856 63.1629 166.761Z" fill="#DBA75D"/>
<path d="M63.1316 167.041L63.1305 167.573C63.1121 167.665 63.0855 167.756 63.0521 167.846L63.0532 167.314C63.0874 167.225 63.1136 167.133 63.1316 167.041Z" fill="#DBA75D"/>
<path d="M63.0533 167.314L63.0522 167.846C63.0173 167.938 62.9746 168.031 62.9236 168.121L62.9255 167.589C62.9764 167.499 63.0184 167.407 63.0533 167.314Z" fill="#DBA75D"/>
<path d="M62.925 167.589L62.9235 168.121C62.8683 168.218 62.8035 168.315 62.73 168.408L62.7319 167.877C62.8054 167.783 62.8695 167.687 62.925 167.589Z" fill="#DBA75D"/>
<path d="M62.7319 167.877L62.7301 168.408C62.6427 168.519 62.5422 168.628 62.429 168.732L62.4308 168.2C62.5433 168.096 62.6438 167.988 62.7319 167.877Z" fill="#DBA75D"/>
<path d="M62.4307 168.201L62.4288 168.733C62.2541 168.895 62.0489 169.047 61.8149 169.189L61.8168 168.657C62.0501 168.516 62.2552 168.363 62.4307 168.201Z" fill="#DBA75D"/>
<path d="M61.8168 168.657L61.815 169.188L61.7708 169.215L61.7719 168.683L61.8168 168.657Z" fill="#DBA75D"/>
<path d="M55.7003 168.929L55.6984 169.46V169.453C55.6943 169.281 55.5769 169.12 55.3651 168.998C54.9203 168.745 54.2089 168.748 53.7781 169.003L53.7792 168.471C54.2108 168.216 54.9226 168.214 55.3666 168.466C55.5784 168.589 55.6962 168.75 55.7003 168.922V168.929Z" fill="#DBA75D"/>
<path d="M55.3726 168.611L55.3708 169.142V169.135C55.3666 168.963 55.2493 168.802 55.0374 168.68C54.9879 168.652 54.935 168.627 54.8795 168.605L54.8814 168.073C54.9365 168.096 54.9894 168.12 55.0385 168.148C55.2504 168.271 55.3685 168.432 55.3726 168.604V168.611Z" fill="#DBA75D"/>
<path d="M54.8814 168.075L54.8796 168.606C54.8357 168.589 54.7899 168.573 54.7427 168.56L54.7446 168.028C54.7911 168.042 54.8372 168.057 54.8814 168.075Z" fill="#DBA75D"/>
<path d="M54.7445 168.028L54.7426 168.559C54.7044 168.548 54.6654 168.539 54.6252 168.53L54.6271 167.999C54.6665 168.007 54.7063 168.017 54.7445 168.028Z" fill="#DBA75D"/>
<path d="M54.6272 167.999L54.6253 168.531C54.5889 168.523 54.551 168.516 54.5139 168.511L54.515 167.979C54.5529 167.985 54.59 167.991 54.6272 167.999Z" fill="#DBA75D"/>
<path d="M54.5152 167.979L54.514 168.51C54.4777 168.505 54.4409 168.501 54.4045 168.498L54.4057 167.967C54.4428 167.97 54.4792 167.974 54.5152 167.979Z" fill="#DBA75D"/>
<path d="M54.4054 167.967L54.4043 168.498C54.3672 168.495 54.3308 168.493 54.2937 168.492L54.2948 167.961C54.3319 167.962 54.3691 167.964 54.4054 167.967Z" fill="#DBA75D"/>
<path d="M54.295 167.961L54.2935 168.492C54.2552 168.491 54.217 168.492 54.1787 168.493L54.1798 167.961C54.2181 167.96 54.2567 167.96 54.295 167.961Z" fill="#DBA75D"/>
<path d="M54.1802 167.961L54.1787 168.492C54.1367 168.493 54.0958 168.497 54.0549 168.501L54.0561 167.969C54.0973 167.965 54.1389 167.962 54.1802 167.961Z" fill="#DBA75D"/>
<path d="M54.0561 167.97L54.055 168.502C54.0066 168.506 53.9586 168.513 53.9114 168.521L53.9133 167.99C53.9598 167.982 54.0077 167.975 54.0561 167.97Z" fill="#DBA75D"/>
<path d="M53.9132 167.99L53.9113 168.521C53.8389 168.534 53.7681 168.552 53.7006 168.574L53.7024 168.042C53.7696 168.02 53.8408 168.003 53.9132 167.99Z" fill="#DBA75D"/>
<path d="M53.7024 168.042L53.7006 168.574C53.6109 168.603 53.5258 168.64 53.4504 168.685L53.4516 168.153C53.5277 168.108 53.6121 168.071 53.7024 168.042Z" fill="#DBA75D"/>
<path d="M57.2266 168.926L57.2255 169.458C57.2244 169.833 56.9645 170.2 56.5107 170.467L56.5119 169.936C56.966 169.668 57.2255 169.302 57.2266 168.926Z" fill="#DBA75D"/>
<path d="M57.1922 168.592L57.1917 169.124L57.1914 169.146L57.1919 168.614L57.1922 168.592Z" fill="#DBA75D"/>
<path d="M57.1922 168.615L57.1911 169.146C57.19 169.193 57.1846 169.24 57.1755 169.286L57.1773 168.754C57.186 168.708 57.1911 168.661 57.1922 168.615Z" fill="#DBA75D"/>
<path d="M57.1773 168.754L57.1754 169.285C57.1656 169.333 57.1525 169.38 57.1353 169.426L57.1364 168.894C57.1536 168.848 57.1675 168.801 57.1773 168.754Z" fill="#DBA75D"/>
<path d="M57.1366 168.894L57.1355 169.425C57.1171 169.474 57.0946 169.522 57.0684 169.569L57.0695 169.037C57.0965 168.99 57.1186 168.942 57.1366 168.894Z" fill="#DBA75D"/>
<path d="M57.0693 169.037L57.0682 169.569C57.0389 169.621 57.0048 169.671 56.9666 169.72L56.9677 169.189C57.0067 169.14 57.0404 169.089 57.0693 169.037Z" fill="#DBA75D"/>
<path d="M56.9679 169.189L56.9668 169.72C56.9207 169.779 56.8678 169.836 56.8093 169.89L56.8105 169.359C56.8697 169.304 56.9218 169.247 56.9679 169.189Z" fill="#DBA75D"/>
<path d="M56.8094 169.359L56.8083 169.89C56.719 169.972 56.6155 170.05 56.4982 170.121L56.5 169.589C56.6167 169.518 56.7202 169.441 56.8094 169.359Z" fill="#DBA75D"/>
<path d="M56.5 169.589L56.4982 170.12L56.4775 170.133L56.4786 169.602L56.5 169.589Z" fill="#DBA75D"/>
<path d="M53.9433 168.63L53.9418 169.161L48.7585 172.218L48.76 171.687L53.9433 168.63Z" fill="#DBA75D"/>
<path d="M47.417 171.84L47.4189 171.308C47.4181 171.412 47.4879 171.517 47.6266 171.596C47.8996 171.751 48.3353 171.75 48.6023 171.592L48.6012 172.124C48.3342 172.281 47.8977 172.283 47.6247 172.128C47.4864 172.048 47.417 171.943 47.417 171.84Z" fill="#DBA75D"/>
<path d="M48.2885 171.402L48.287 171.934C48.2397 171.962 48.1876 171.985 48.1321 172.003L48.1332 171.471C48.1887 171.453 48.242 171.43 48.2885 171.402Z" fill="#DBA75D"/>
<path d="M48.1333 171.471L48.1322 172.002C48.0902 172.016 48.0467 172.027 48.0017 172.035L48.0028 171.503C48.0478 171.495 48.0913 171.485 48.1333 171.471Z" fill="#DBA75D"/>
<path d="M48.0027 171.504L48.0016 172.036C47.9723 172.041 47.9431 172.045 47.9131 172.048L47.9142 171.516C47.9442 171.513 47.9738 171.509 48.0027 171.504Z" fill="#DBA75D"/>
<path d="M47.9143 171.516L47.9132 172.047C47.888 172.05 47.8622 172.052 47.837 172.053L47.8382 171.521C47.864 171.52 47.8892 171.518 47.9143 171.516Z" fill="#DBA75D"/>
<path d="M47.8382 171.522L47.8371 172.053C47.8131 172.054 47.7899 172.054 47.7659 172.053L47.7677 171.522C47.791 171.522 47.815 171.522 47.8382 171.522Z" fill="#DBA75D"/>
<path d="M47.7671 171.522L47.7653 172.053C47.7424 172.053 47.7206 172.052 47.6978 172.05L47.6989 171.518C47.7218 171.52 47.7443 171.521 47.7671 171.522Z" fill="#DBA75D"/>
<path d="M47.6994 171.518L47.6982 172.049C47.6754 172.047 47.6532 172.045 47.6311 172.042L47.6322 171.51C47.6544 171.514 47.6772 171.516 47.6994 171.518Z" fill="#DBA75D"/>
<path d="M47.6321 171.51L47.631 172.043C47.6077 172.039 47.5849 172.035 47.5627 172.031L47.5639 171.498C47.5867 171.503 47.6092 171.507 47.6321 171.51Z" fill="#DBA75D"/>
<path d="M47.564 171.498L47.5629 172.03C47.5385 172.025 47.5145 172.019 47.4905 172.012L47.4924 171.481C47.5156 171.487 47.5396 171.493 47.564 171.498Z" fill="#DBA75D"/>
<path d="M47.4924 171.481L47.4905 172.012C47.4616 172.004 47.4339 171.995 47.4069 171.984L47.4087 171.453C47.4357 171.463 47.4635 171.472 47.4924 171.481Z" fill="#DBA75D"/>
<path d="M47.4088 171.453L47.4069 171.984C47.3735 171.971 47.3409 171.955 47.3105 171.939C47.1722 171.858 47.1028 171.754 47.1028 171.65L47.1047 171.118C47.1039 171.222 47.1737 171.327 47.3124 171.406C47.3424 171.424 47.3747 171.439 47.4088 171.453Z" fill="#DBA75D"/>
<path d="M55.9507 165.469L55.9492 166.001L44.6467 172.667L44.6482 172.135L55.9507 165.469Z" fill="#DBA75D"/>
<path d="M43.9429 173.584L43.9447 173.053C43.9459 172.715 44.1649 172.378 44.6029 172.118L44.6018 172.651C44.163 172.909 43.944 173.246 43.9429 173.584Z" fill="#DBA75D"/>
<path d="M44.5122 172.083L44.5111 172.615L44.4948 172.625L44.4958 172.093L44.5122 172.083Z" fill="#DBA75D"/>
<path d="M44.496 172.094L44.4948 172.625C44.3835 172.692 44.2867 172.765 44.2046 172.841L44.2065 172.309C44.2886 172.233 44.3853 172.161 44.496 172.094Z" fill="#DBA75D"/>
<path d="M44.2063 172.308L44.2044 172.841C44.15 172.89 44.102 172.942 44.0608 172.995L44.0619 172.463C44.1039 172.41 44.1519 172.359 44.2063 172.308Z" fill="#DBA75D"/>
<path d="M44.0624 172.463L44.0613 172.995C44.0253 173.04 43.9941 173.086 43.9679 173.133L43.9698 172.602C43.996 172.554 44.0271 172.508 44.0624 172.463Z" fill="#DBA75D"/>
<path d="M43.9694 172.602L43.9675 173.133C43.9431 173.176 43.9229 173.22 43.906 173.265L43.9071 172.733C43.924 172.689 43.945 172.645 43.9694 172.602Z" fill="#DBA75D"/>
<path d="M43.9054 172.733L43.9043 173.265C43.8887 173.308 43.8764 173.351 43.8677 173.395L43.8695 172.864C43.8782 172.82 43.8898 172.776 43.9054 172.733Z" fill="#DBA75D"/>
<path d="M43.8695 172.864L43.8676 173.395C43.8597 173.439 43.8542 173.484 43.8531 173.529L43.8542 172.997C43.856 172.952 43.8608 172.908 43.8695 172.864Z" fill="#DBA75D"/>
<path d="M43.8535 172.997L43.8531 173.529L43.8528 173.549L43.8535 173.017V172.997Z" fill="#DBA75D"/>
<path d="M61.9319 168.873L61.9304 169.404L53.0327 174.651L53.0342 174.119L61.9319 168.873Z" fill="#DBA75D"/>
<path d="M51.6914 174.272L51.6925 173.74C51.6925 173.844 51.7612 173.947 51.8995 174.028C52.1725 174.183 52.6109 174.181 52.8772 174.024L52.8757 174.555C52.6087 174.713 52.1714 174.714 51.8984 174.559C51.76 174.48 51.6907 174.375 51.6914 174.272Z" fill="#DBA75D"/>
<path d="M52.5631 173.834L52.562 174.365C52.5155 174.392 52.463 174.415 52.4075 174.433L52.4086 173.902C52.4641 173.884 52.5166 173.861 52.5631 173.834Z" fill="#DBA75D"/>
<path d="M52.4082 173.902L52.4071 174.433C52.3651 174.447 52.3216 174.458 52.2766 174.466L52.2785 173.934C52.3235 173.926 52.367 173.916 52.4082 173.902Z" fill="#DBA75D"/>
<path d="M52.2787 173.934L52.2769 174.466C52.248 174.471 52.2184 174.475 52.1884 174.478L52.1902 173.947C52.2202 173.944 52.2495 173.94 52.2787 173.934Z" fill="#DBA75D"/>
<path d="M52.1899 173.947L52.1884 174.478C52.1633 174.48 52.1382 174.483 52.1123 174.484L52.1134 173.952C52.1393 173.951 52.1648 173.949 52.1899 173.947Z" fill="#DBA75D"/>
<path d="M52.1129 173.952L52.1118 174.483C52.0878 174.484 52.0645 174.484 52.0405 174.483L52.0424 173.952C52.0656 173.953 52.0896 173.953 52.1129 173.952Z" fill="#DBA75D"/>
<path d="M52.0428 173.952L52.0409 174.484C52.018 174.483 51.9955 174.482 51.9727 174.48L51.9745 173.949C51.9974 173.95 52.0199 173.952 52.0428 173.952Z" fill="#DBA75D"/>
<path d="M51.9745 173.949L51.9726 174.48C51.9505 174.478 51.9276 174.476 51.9055 174.472L51.9066 173.941C51.9295 173.944 51.9516 173.947 51.9745 173.949Z" fill="#DBA75D"/>
<path d="M51.9072 173.94L51.906 174.472C51.8828 174.469 51.8599 174.465 51.837 174.46L51.8389 173.928C51.861 173.933 51.8843 173.937 51.9072 173.94Z" fill="#DBA75D"/>
<path d="M51.8384 173.928L51.8369 174.46C51.8125 174.455 51.7881 174.449 51.7649 174.442L51.766 173.911C51.7893 173.918 51.814 173.923 51.8384 173.928Z" fill="#DBA75D"/>
<path d="M51.7662 173.911L51.765 174.443C51.7358 174.435 51.7077 174.425 51.6807 174.415L51.6818 173.883C51.7092 173.893 51.7373 173.903 51.7662 173.911Z" fill="#DBA75D"/>
<path d="M51.6817 173.883L51.6806 174.415C51.6465 174.401 51.6142 174.386 51.5842 174.369C51.4458 174.289 51.3765 174.185 51.3772 174.081L51.3783 173.549C51.3783 173.653 51.447 173.757 51.5853 173.837C51.6157 173.854 51.6483 173.869 51.6817 173.883Z" fill="#DBA75D"/>
<path d="M56.5308 170.103L56.5293 170.634L48.9397 175.11L48.9412 174.578L56.5308 170.103Z" fill="#DBA75D"/>
<path d="M42.5872 173.436L42.589 172.904C42.5872 173.46 42.9558 174.017 43.6949 174.444C44.4007 174.845 45.3314 175.063 46.3199 175.059C47.3062 175.055 48.2302 174.828 48.9202 174.421L48.9183 174.953C48.2287 175.36 47.305 175.587 46.318 175.591C45.3295 175.595 44.3988 175.377 43.693 174.975C42.9539 174.548 42.5853 173.991 42.5872 173.436Z" fill="#DBA75D"/>
<path d="M48.8781 174.108L48.8762 174.639C48.6238 174.788 48.3396 174.913 48.0325 175.012L48.0343 174.48C48.3415 174.382 48.6257 174.256 48.8781 174.108Z" fill="#DBA75D"/>
<path d="M48.0344 174.481L48.0325 175.012C47.8154 175.082 47.5866 175.138 47.3496 175.182L47.3507 174.65C47.5877 174.607 47.8172 174.55 48.0344 174.481Z" fill="#DBA75D"/>
<path d="M47.3508 174.65L47.3493 175.181C47.1955 175.209 47.0388 175.23 46.879 175.247L46.8802 174.715C47.0399 174.699 47.1974 174.677 47.3508 174.65Z" fill="#DBA75D"/>
<path d="M46.8806 174.715L46.8795 175.246C46.7448 175.26 46.608 175.269 46.4696 175.273L46.4715 174.742C46.6099 174.737 46.746 174.728 46.8806 174.715Z" fill="#DBA75D"/>
<path d="M46.4711 174.742L46.4696 175.273C46.4055 175.276 46.3413 175.277 46.2761 175.277C46.212 175.278 46.1486 175.277 46.0852 175.275L46.0863 174.744C46.1497 174.746 46.2138 174.747 46.278 174.746C46.3425 174.746 46.407 174.744 46.4711 174.742Z" fill="#DBA75D"/>
<path d="M46.0862 174.744L46.0851 175.275C45.9617 175.272 45.8399 175.266 45.7195 175.255L45.7214 174.724C45.8417 174.734 45.9636 174.741 46.0862 174.744Z" fill="#DBA75D"/>
<path d="M45.7213 174.724L45.7194 175.255C45.599 175.246 45.4802 175.233 45.3628 175.216L45.3639 174.685C45.4813 174.702 45.6005 174.714 45.7213 174.724Z" fill="#DBA75D"/>
<path d="M45.3639 174.685L45.3627 175.216C45.2401 175.199 45.1197 175.178 45.0012 175.153L45.0023 174.622C45.1208 174.646 45.2412 174.668 45.3639 174.685Z" fill="#DBA75D"/>
<path d="M45.0024 174.622L45.0013 175.153C44.8701 175.126 44.7422 175.095 44.6169 175.059L44.6188 174.528C44.7433 174.563 44.8719 174.595 45.0024 174.622Z" fill="#DBA75D"/>
<path d="M44.6192 174.528L44.6174 175.059C44.464 175.015 44.3151 174.965 44.1726 174.909L44.1737 174.378C44.3166 174.434 44.4655 174.484 44.6192 174.528Z" fill="#DBA75D"/>
<path d="M44.1734 174.378L44.1723 174.909C43.9878 174.837 43.8138 174.754 43.651 174.661C42.9119 174.235 42.5433 173.677 42.5452 173.122L42.547 172.591C42.5452 173.146 42.9138 173.703 43.6529 174.13C43.8149 174.223 43.9889 174.305 44.1734 174.378Z" fill="#DBA75D"/>
<path d="M62.0001 165.062C62.9399 165.604 63.4514 166.305 63.4656 167.053C63.4795 167.808 62.9853 168.519 62.0733 169.056L53.1756 174.303C52.9094 174.461 52.4714 174.462 52.1984 174.307C51.9261 174.149 51.9224 173.898 52.1882 173.741L61.0855 168.495C61.738 168.11 62.0935 167.599 62.0826 167.059C62.0736 166.524 61.7058 166.02 61.0491 165.642C60.3663 165.253 59.4854 165.046 58.5516 165.05C57.6186 165.054 56.7456 165.269 56.092 165.654L44.7895 172.319C43.9019 172.843 43.9131 173.688 44.8127 174.207C45.7086 174.717 47.2304 174.71 48.0951 174.2L55.6855 169.724C55.8921 169.603 56.0087 169.435 56.0058 169.264C56.0016 169.093 55.8839 168.932 55.672 168.809C55.228 168.557 54.5162 168.559 54.0846 168.814L48.9014 171.871C48.6344 172.029 48.1982 172.03 47.9252 171.875C47.6522 171.718 47.6481 171.466 47.914 171.309L53.0984 168.252C54.0617 167.683 55.648 167.677 56.635 168.237C57.1173 168.516 57.3798 168.875 57.3865 169.259C57.3936 169.641 57.1334 170.015 56.6721 170.287L49.0829 174.762C48.3929 175.169 47.4685 175.396 46.4822 175.4C45.4937 175.404 44.5634 175.186 43.8576 174.784C42.4011 173.944 42.3835 172.594 43.8017 171.758L55.1046 165.091C56.0155 164.553 57.2346 164.255 58.5381 164.25C59.8398 164.245 61.0709 164.533 62.0001 165.062Z" fill="#EABD70"/>
<defs>
<linearGradient id="paint0_linear_64_1161" x1="203.565" y1="180.488" x2="224.19" y2="142.744" gradientUnits="userSpaceOnUse">
<stop stop-color="#FF725C"/>
<stop offset="0.44" stop-color="#FF9067"/>
<stop offset="1" stop-color="#FFAD71"/>
</linearGradient>
<linearGradient id="paint1_linear_64_1161" x1="195.315" y1="129.056" x2="232.815" y2="129.056" gradientUnits="userSpaceOnUse">
<stop stop-color="#FF4D31"/>
<stop offset="0.44" stop-color="#FF7D51"/>
<stop offset="1" stop-color="#FFAD71"/>
</linearGradient>
</defs>
</svg>
